<?xml version="1.0" encoding="UTF-8"?>
<!DOCTYPE svg PUBLIC "-//W3C//DTD SVG 1.1//EN" "http://www.w3.org/Graphics/SVG/1.1/DTD/svg11.dtd">
<svg version="1.2" xmlns="http://www.w3.org/2000/svg" xmlns:xlink="http://www.w3.org/1999/xlink" x="0" y="0" width="655" height="336" viewBox="0 0 655 336">
<style type="text/css"><![CDATA[
text { font:12px Dialog; }
]]></style>
<rect x="-1538" y="-1135" width="3252" height="2612" style="fill:rgb(255,255,255);stroke:none" />
<clipPath id="clip1"><path d="M491,119 L641,119 L641,212 L491,212 L491,119 Z" /></clipPath>
<path d="M503,123 C498.5817261,123 495,126.5817184 495,131 L495,199 C495,203.4182739 498.5817261,207 503,207 L628,207 C632.4182739,207 636,203.4182739 636,199 L636,131 C636,126.5817184 632.4182739,123 628,123 Z" style="fill:rgb(220,230,242);stroke:none" clip-path="url(#clip1)" />
<clipPath id="clip2"><path d="M491,119 L641,119 L641,212 L491,212 L491,119 Z" /></clipPath>
<path d="M503,123 C498.5817261,123 495,126.5817184 495,131 L495,199 C495,203.4182739 498.5817261,207 503,207 L628,207 C632.4182739,207 636,203.4182739 636,199 L636,131 C636,126.5817184 632.4182739,123 628,123 Z" style="fill:none;stroke:rgb(85,142,213);stroke-width:5" clip-path="url(#clip2)" />
<clipPath id="clip3"><path d="M527,139 L605,139 L605,192 L527,192 L527,139 Z" /></clipPath>
<path d="M545.8466797,153.2832031 L548.2373047,158.046875 L548.2373047,148.2558594 L552.5263672,148.2558594 L552.5263672,166.9941406 C552.5263672,174.0722656 550.3115234,179.4042969 545.8818359,182.9902344 C545.4365234,182.3808594 544.5283203,181.3789063 543.1572266,179.984375 C540.2861328,180.3710938 536.4716797,180.9980469 531.7138672,181.8652344 L530.6943359,177.2949219 L532.0654297,177.1015625 L532.0654297,164.4628906 L535.5810547,164.4628906 L535.5810547,176.5917969 C536.1318359,176.4980469 536.6943359,176.4101563 537.2685547,176.328125 L537.2685547,162.4238281 L532.0302734,162.4238281 L532.0302734,149.9082031 L543.4912109,149.9082031 L543.4912109,154.2675781 Z M539.2724609,158.6269531 L539.2724609,153.7050781 L536.2490234,153.7050781 L536.2490234,158.6269531 Z M541.3818359,162.4238281 L541.3818359,166.7480469 L543.7021484,166.7480469 L543.7021484,167.9082031 C545.4599609,166.4199219 546.9716797,165.0429688 548.2373047,163.7773438 L548.2373047,161.28125 L545.8466797,162.3886719 L543.4912109,156.6757813 L543.4912109,162.4238281 Z M544.2294922,175.1503906 C544.1708984,176.1816406 544.1298828,177.1542969 544.1064453,178.0683594 C546.3447266,176.0644531 547.6689453,173.2285156 548.0791016,169.5605469 C546.8134766,170.9199219 545.7880859,171.9628906 545.0029297,172.6894531 L543.4912109,170.8261719 L541.3818359,170.8261719 L541.3818359,175.6425781 Z M565.6044922,155.2167969 C564.0810547,157.7949219 562.4521484,160.2675781 560.7177734,162.6347656 L558.7138672,161.4394531 L558.7138672,163.7070313 C560.9169922,165.1015625 563.3193359,166.7128906 565.9208984,168.5410156 L563.0380859,172.7246094 C561.3974609,171.2480469 559.9560547,169.9824219 558.7138672,168.9277344 L558.7138672,177.4003906 C558.7138672,177.9628906 558.9482422,178.2441406 559.4169922,178.2441406 L559.8740234,178.2441406 C560.5185547,178.2441406 560.9140625,177.8076172 561.0605469,176.9345703 C561.2070313,176.0615234 561.3505859,174.6347656 561.4912109,172.6542969 C562.7802734,173.1230469 564.1630859,173.5566406 565.6396484,173.9550781 C565.2177734,177.7402344 564.6289063,180.0751953 563.8730469,180.9599609 C563.1171875,181.8447266 562.0302734,182.2871094 560.6123047,182.2871094 L558.4326172,182.2871094 C555.7607422,182.2871094 554.4248047,180.9628906 554.4248047,178.3144531 L554.4248047,148.2558594 L558.7138672,148.2558594 L558.7138672,158.5039063 C559.6865234,156.7578125 560.5654297,155.0058594 561.3505859,153.2480469 Z M573.3564453,149.6972656 L577.8564453,148.0097656 C578.7001953,149.3222656 579.8251953,151.2207031 581.2314453,153.7050781 L576.4501953,155.6386719 C575.3720703,153.3652344 574.3408203,151.3847656 573.3564453,149.6972656 Z M601.3056641,175.8535156 C601.3056641,177.5996094 601.0507813,179.0058594 600.5410156,180.0722656 C600.03125,181.1386719 599.2167969,181.8505859 598.0976563,182.2080078 C596.9785156,182.5654297 594.6494141,182.7441406 591.1103516,182.7441406 C590.8525391,181.0097656 590.4775391,179.3691406 589.9853516,177.8222656 C591.4384766,177.9394531 592.8564453,177.9980469 594.2392578,177.9980469 C595.8095703,177.9980469 596.5947266,177.1894531 596.5947266,175.5722656 L596.5947266,154.0917969 L582.5322266,154.0917969 L582.5322266,149.7675781 L601.3056641,149.7675781 Z M569.1728516,152.7207031 L573.8837891,152.7207031 L573.8837891,182.6738281 L569.1728516,182.6738281 Z M576.2744141,156.9746094 L594.2041016,156.9746094 L594.2041016,174.6933594 L587.3486328,174.6933594 L587.3486328,181.8652344 L583.1298828,181.8652344 L583.1298828,174.6933594 L576.2744141,174.6933594 Z M580.4931641,164.1113281 L583.1298828,164.1113281 L583.1298828,160.7714844 L580.4931641,160.7714844 Z M589.9853516,160.7714844 L587.3486328,160.7714844 L587.3486328,164.1113281 L589.9853516,164.1113281 Z M589.9853516,170.8964844 L589.9853516,167.5566406 L587.3486328,167.5566406 L587.3486328,170.8964844 Z M580.4931641,170.8964844 L583.1298828,170.8964844 L583.1298828,167.5566406 L580.4931641,167.5566406 Z" style="fill:rgb(55,96,146);stroke:none" clip-path="url(#clip3)" />
<clipPath id="clip4"><path d="M40,14 L135,14 L135,68 L40,68 L40,14 Z" /></clipPath>
<path d="M49,15 C44.5817261,15 41,18.5817261 41,23 L41,58 C41,62.4182816 44.5817261,66 49,66 L125,66 C129.4182739,66 133,62.4182816 133,58 L133,23 C133,18.5817261 129.4182739,15 125,15 Z" style="fill:rgb(85,142,213);stroke:none" clip-path="url(#clip4)" />
<clipPath id="clip5"><path d="M52,21 L123,21 L123,61 L52,61 L52,21 Z" /></clipPath>
<path d="M76.5136719,31.7324219 L76.5136719,45.5322266 C77.3346252,45.8792267 78.333313,46.2135391 79.5097656,46.5351563 C79.0527039,49.5143204 78.4137268,51.3085938 77.5927734,51.9179688 C76.7717896,52.5273438 75.6842346,52.8320313 74.3300781,52.8320313 L68.2363281,52.8320313 C65.4772034,52.8320313 64.0976563,51.579422 64.0976563,49.0742188 L64.0976563,46.5351563 L59.1210938,46.5351563 L59.1210938,48.515625 L55.4648438,48.515625 L55.4648438,31.7324219 L64.0976563,31.7324219 L64.0976563,28.609375 L67.7792969,28.609375 L67.7792969,31.7324219 Z M72.8574219,34.9316406 L67.7792969,34.9316406 L67.7792969,37.5214844 L72.8574219,37.5214844 Z M59.1210938,34.9316406 L59.1210938,37.5214844 L64.0976563,37.5214844 L64.0976563,34.9316406 Z M72.8574219,43.3359375 L72.8574219,40.7207031 L67.7792969,40.7207031 L67.7792969,43.3359375 Z M59.1210938,43.3359375 L64.0976563,43.3359375 L64.0976563,40.7207031 L59.1210938,40.7207031 Z M69.328125,49.6835938 L73.1367188,49.6835938 C73.7630005,49.6835938 74.2581177,49.5756836 74.6220703,49.3598633 C74.9859924,49.144043 75.2208557,48.8478165 75.3266602,48.4711914 C75.4324341,48.0945587 75.5615234,47.4492188 75.7138672,46.5351563 L67.7792969,46.5351563 L67.7792969,48.3378906 C67.7792969,49.2350235 68.2955627,49.6835938 69.328125,49.6835938 Z M87.9013672,31.1484375 L94.3378906,31.1484375 C94.0585938,30.4967346 93.7496643,29.8111877 93.4111328,29.0917969 L97.1943359,28.40625 C97.6428833,29.3203125 98.0660706,30.234375 98.4638672,31.1484375 L105.2177734,31.1484375 L105.2177734,34.1445313 L96.6357422,34.1445313 C95.5608521,35.4055939 94.4267578,36.6412659 93.2333984,37.8515625 L99.8984375,37.5595703 C99.4752502,37.0432892 99.0563049,36.548172 98.6416016,36.0742188 L101.3837891,34.3222656 C103.1780396,36.3027344 104.7776489,38.1393204 106.1826172,39.8320313 L103.2373047,41.8886719 L102.0820313,40.3398438 C95.2011719,40.5852814 90.7874146,40.8391876 88.8408203,41.1015625 L87.7744141,38.2832031 C88.9085083,37.8854141 90.3727112,36.5058594 92.1669922,34.1445313 L87.9013672,34.1445313 Z M83.5341797,28.7617188 C84.8544922,29.6927032 86.2424927,30.7845001 87.6982422,32.0371094 L85.4130859,34.6269531 C83.9403992,33.1712189 82.6116333,31.9693909 81.4267578,31.0214844 Z M83.2548828,35.515625 C84.8121643,36.6328125 86.2001953,37.7246094 87.4189453,38.7910156 L85.0322266,41.4316406 C83.9488831,40.3652344 82.6200867,39.188797 81.0458984,37.9023438 Z M103.8212891,45.0117188 C104.6506958,45.3502579 105.4801331,45.6634064 106.3095703,45.9511719 C106.1318359,48.3378906 105.9731445,49.9332657 105.8334961,50.7373047 C105.6938477,51.5413361 105.3637695,52.1676407 104.8432617,52.6162109 C104.3227539,53.0647736 103.6096802,53.2890625 102.7041016,53.2890625 L101.7900391,53.2890625 C99.8434143,53.2890625 98.8701172,52.2311172 98.8701172,50.1152344 L98.8701172,41.5585938 L102.1455078,41.5585938 L102.1455078,49.6835938 C102.1455078,50.1913986 102.3147583,50.4453049 102.6533203,50.4453125 L102.8310547,50.4453125 C103.1780396,50.4453049 103.4002075,50.1956329 103.4975586,49.6962891 C103.5948792,49.1969376 103.7027893,47.6354141 103.8212891,45.0117188 Z M92.8779297,41.6347656 L92.8779297,44.3261719 C92.8778992,48.524086 91.5237427,51.6132813 88.8154297,53.59375 C88.1044922,52.8658829 87.2581177,52.0872345 86.2763672,51.2578125 C88.4938049,49.6158829 89.6025391,47.0683594 89.6025391,43.6152344 L89.6025391,41.6347656 Z M94.1728516,41.6347656 L97.4482422,41.6347656 L97.4482422,52.984375 L94.1728516,52.984375 Z M83.9912109,42.3203125 C85.0914612,42.828125 86.2001648,43.2682266 87.3173828,43.640625 L84.6259766,53.3652344 C83.4072266,52.9082031 82.2561646,52.5104141 81.1728516,52.171875 C82.1546021,49.3619766 83.0940552,46.078125 83.9912109,42.3203125 Z M109.4072266,34.1699219 C110.5497742,33.1373596 111.4194336,32.2508087 112.0161133,31.5102539 C112.6127625,30.7696838 113.1692505,29.9085236 113.6855469,28.9267578 L114.2568359,28.9267578 C114.7731018,29.9085236 115.3253479,30.7654572 115.9135742,31.4975586 C116.50177,32.2296448 117.3756409,33.1204376 118.5351563,34.1699219 L118.5351563,35.1347656 C117.7141724,34.7454376 117.0857544,34.4153595 116.6499023,34.1445313 C116.2140198,33.8736877 115.6914063,33.501297 115.0820313,33.0273438 L115.0820313,51.3720703 L112.8603516,51.3720703 L112.8603516,33.0273438 C112.2763672,33.484375 111.7579651,33.8525391 111.3051758,34.1318359 C110.852356,34.4111328 110.219696,34.7454376 109.4072266,35.1347656 Z" style="fill:rgb(255,255,255);stroke:none" clip-path="url(#clip5)" />
<clipPath id="clip6"><path d="M40,206 L135,206 L135,260 L40,260 L40,206 Z" /></clipPath>
<path d="M49,207 C44.5817261,207 41,210.5817261 41,215 L41,250 C41,254.4182739 44.5817261,258 49,258 L125,258 C129.4182739,258 133,254.4182739 133,250 L133,215 C133,210.5817261 129.4182739,207 125,207 Z" style="fill:rgb(85,142,213);stroke:none" clip-path="url(#clip6)" />
<clipPath id="clip7"><path d="M52,213 L123,213 L123,253 L52,253 L52,213 Z" /></clipPath>
<path d="M76.5200195,223.7451172 L76.5200195,237.5449219 C77.3409729,237.891922 78.3396606,238.2262268 79.5161133,238.5478516 C79.0590515,241.5270081 78.4200745,243.3212891 77.5991211,243.9306641 C76.7781372,244.5400391 75.6905823,244.8447266 74.3364258,244.8447266 L68.2426758,244.8447266 C65.483551,244.8447266 64.1040039,243.5921173 64.1040039,241.0869141 L64.1040039,238.5478516 L59.1274414,238.5478516 L59.1274414,240.5283203 L55.4711914,240.5283203 L55.4711914,223.7451172 L64.1040039,223.7451172 L64.1040039,220.6220703 L67.7856445,220.6220703 L67.7856445,223.7451172 Z M72.8637695,226.9443359 L67.7856445,226.9443359 L67.7856445,229.5341797 L72.8637695,229.5341797 Z M59.1274414,226.9443359 L59.1274414,229.5341797 L64.1040039,229.5341797 L64.1040039,226.9443359 Z M72.8637695,235.3486328 L72.8637695,232.7333984 L67.7856445,232.7333984 L67.7856445,235.3486328 Z M59.1274414,235.3486328 L64.1040039,235.3486328 L64.1040039,232.7333984 L59.1274414,232.7333984 Z M69.3344727,241.6962891 L73.1430664,241.6962891 C73.7693481,241.6962891 74.2644653,241.5883789 74.628418,241.3725586 C74.9923401,241.1567383 75.2272034,240.8605042 75.3330078,240.4838867 C75.4387817,240.107254 75.5678711,239.4619141 75.7202148,238.5478516 L67.7856445,238.5478516 L67.7856445,240.3505859 C67.7856445,241.2477112 68.3019104,241.6962891 69.3344727,241.6962891 Z M87.0444336,232.1240234 C87.0444336,237.9130859 85.8510742,242.3310547 83.4643555,245.3779297 C82.584137,243.9560547 81.7546997,242.7880859 80.9760742,241.8740234 C82.651825,239.4365234 83.4897461,236.2288361 83.4897461,232.2509766 L83.4897461,222.1201172 L105.9604492,222.1201172 L105.9604492,225.4208984 L87.0444336,225.4208984 Z M105.0463867,234.1806641 L97.7084961,234.1806641 L97.7084961,241.0615234 L106.0874023,241.0615234 L106.0874023,244.3115234 L86.2319336,244.3115234 L86.2319336,241.0615234 L94.0522461,241.0615234 L94.0522461,234.1806641 L88.1108398,234.1806641 L88.1108398,231.0322266 L94.0522461,231.0322266 L94.0522461,226.0556641 L97.7084961,226.0556641 L97.7084961,231.0322266 L105.0463867,231.0322266 Z M98.8510742,236.3896484 L101.2124023,234.4599609 C102.4988403,235.7802734 103.7768555,237.1513672 105.0463867,238.5732422 L102.4311523,240.6806641 C101.3308716,239.2926331 100.1375122,237.8623047 98.8510742,236.3896484 Z M118.5288086,238.1416016 C117.3862305,239.1741486 116.5166016,240.0606995 115.9199219,240.8012695 C115.3232422,241.5418243 114.7667542,242.4029846 114.2504883,243.3847656 L113.6791992,243.3847656 C113.1629028,242.4029846 112.608551,241.546051 112.0161133,240.8139648 C111.423645,240.0818634 110.5519104,239.1910706 109.4008789,238.1416016 L109.4008789,237.1767578 C110.2218323,237.5660706 110.8502502,237.8961487 111.2861328,238.1669922 C111.7219849,238.4378204 112.2446289,238.8102112 112.8540039,239.2841797 L112.8540039,220.9394531 L115.0756836,220.9394531 L115.0756836,239.2841797 C115.659668,238.8271484 116.1780396,238.4589844 116.6308594,238.1796875 C117.0836487,237.9003906 117.7163086,237.5660706 118.5288086,237.1767578 Z" style="fill:rgb(255,255,255);stroke:none" clip-path="url(#clip7)" />
<clipPath id="clip8"><path d="M13,268 L161,268 L161,322 L13,322 L13,268 Z" /></clipPath>
<path d="M22,269 C17.5817261,269 14,272.5817261 14,277 L14,312 C14,316.4182739 17.5817261,320 22,320 L151,320 C155.4182739,320 159,316.4182739 159,312 L159,277 C159,272.5817261 155.4182739,269 151,269 Z" style="fill:rgb(85,142,213);stroke:none" clip-path="url(#clip8)" />
<clipPath id="clip9"><path d="M25,275 L149,275 L149,315 L25,315 L25,275 Z" /></clipPath>
<path d="M30.6025391,301.2333984 L30.6025391,292.6386719 L30.2724609,292.9052734 C29.5445557,292.0081177 28.6727905,291.0602112 27.6572266,290.0615234 C30.8394775,287.7594299 33.5731812,285.2203674 35.8583984,282.4443359 L40.0732422,282.4443359 C39.6585083,283.0706177 39.2141724,283.6884766 38.7402344,284.2978516 L47.5126953,284.2978516 L47.5126953,287.0908203 L44.3642578,289.9091797 L50.2294922,289.9091797 L50.2294922,301.1318359 L46.7255859,301.1318359 L46.7255859,292.9560547 L34.0810547,292.9560547 L34.0810547,301.2333984 Z M33.6875,289.9091797 L39.7177734,289.9091797 L42.6630859,287.2431641 L36.3027344,287.2431641 C35.4817505,288.1402893 34.6099854,289.0289612 33.6875,289.9091797 Z M38.7021484,294.0224609 L42.2568359,294.0224609 C42.2822266,296.1213989 42.0494385,297.9326172 41.5585938,299.4560547 C46.0442505,301.1402893 49.8062744,302.6891174 52.8447266,304.1025391 L50.7373047,307.6064453 C47.3687744,305.6852112 43.84375,303.8824768 40.1621094,302.1982422 C38.156189,304.7711487 34.7750244,306.5908203 30.0185547,307.6572266 C29.3583984,306.4892578 28.5458374,305.3043518 27.5810547,304.1025391 C30.4671021,303.6455078 32.7628174,303.0170898 34.4682617,302.2172852 C36.173645,301.4174805 37.3120117,300.4187622 37.8833008,299.2211914 C38.4545898,298.0235901 38.7275391,296.2906799 38.7021484,294.0224609 Z M59.8652344,293.9716797 C59.8652344,300.3277893 59.0019531,304.8642578 57.2753906,307.5810547 L54.40625,305.1435547 C55.8450317,302.6552734 56.5475159,298.7789612 56.5136719,293.5146484 L56.5136719,284.8056641 L65.8701172,284.8056641 C65.6246643,284.1878052 65.4172974,283.6884766 65.2480469,283.3076172 L69.3867188,282.3427734 L70.3769531,284.8056641 L79.3144531,284.8056641 L79.3144531,287.9287109 L59.8652344,287.9287109 Z M77.96875,289.5029297 L77.96875,292.6259766 L72.2050781,296.6123047 L79.3144531,296.6123047 L79.3144531,299.4306641 L77.3085938,303.7216797 L74.1855469,302.8583984 L75.734375,299.6337891 L71.6464844,299.6337891 L71.6464844,303.6962891 C71.6464844,304.7796021 71.4031372,305.6005859 70.9165039,306.1591797 C70.4298401,306.7177734 69.8035278,307.0541992 69.0375977,307.168457 C68.271637,307.2827148 66.5006409,307.3609924 63.7246094,307.4033203 C63.5383911,306.2014771 63.2929688,305.0842896 62.9882813,304.0517578 C64.8417969,304.1363831 66.0266724,304.1787109 66.5429688,304.1787109 C67.5585938,304.1787109 68.0579224,303.5947266 68.0410156,302.4267578 L68.0410156,299.6337891 L60.5253906,299.6337891 L60.5253906,296.6123047 L66.9873047,296.6123047 C65.6923828,295.7236328 64.4186096,294.9195862 63.1660156,294.2001953 L64.9179688,292.5244141 L61.4648438,292.5244141 L61.4648438,289.5029297 Z M73.2207031,292.5244141 L65.9462891,292.5244141 L69.5771484,294.9746094 Z M103.3974609,285.7197266 L103.3974609,299.5195313 C104.2184143,299.8665161 105.2171021,300.2008362 106.3935547,300.5224609 C105.9364929,303.5016174 105.2975159,305.2958984 104.4765625,305.9052734 C103.6555786,306.5146484 102.5680237,306.8193359 101.2138672,306.8193359 L95.1201172,306.8193359 C92.3609924,306.8193359 90.9814453,305.5667114 90.9814453,303.0615234 L90.9814453,300.5224609 L86.0048828,300.5224609 L86.0048828,302.5029297 L82.3486328,302.5029297 L82.3486328,285.7197266 L90.9814453,285.7197266 L90.9814453,282.5966797 L94.6630859,282.5966797 L94.6630859,285.7197266 Z M99.7412109,288.9189453 L94.6630859,288.9189453 L94.6630859,291.5087891 L99.7412109,291.5087891 Z M86.0048828,288.9189453 L86.0048828,291.5087891 L90.9814453,291.5087891 L90.9814453,288.9189453 Z M99.7412109,297.3232422 L99.7412109,294.7080078 L94.6630859,294.7080078 L94.6630859,297.3232422 Z M86.0048828,297.3232422 L90.9814453,297.3232422 L90.9814453,294.7080078 L86.0048828,294.7080078 Z M96.2119141,303.6708984 L100.0205078,303.6708984 C100.6467896,303.6708984 101.1419067,303.5629883 101.5058594,303.347168 C101.8697815,303.1313477 102.1046448,302.8351135 102.2104492,302.4584961 C102.3162231,302.0818481 102.4453125,301.4365234 102.5976563,300.5224609 L94.6630859,300.5224609 L94.6630859,302.3251953 C94.6630859,303.2223206 95.1793518,303.6708984 96.2119141,303.6708984 Z M113.921875,294.0986328 C113.921875,299.8876953 112.7285156,304.3056641 110.3417969,307.3525391 C109.4615784,305.9306641 108.6321411,304.7626953 107.8535156,303.8486328 C109.5292664,301.4111328 110.3671875,298.2034302 110.3671875,294.2255859 L110.3671875,284.0947266 L132.8378906,284.0947266 L132.8378906,287.3955078 L113.921875,287.3955078 Z M131.9238281,296.1552734 L124.5859375,296.1552734 L124.5859375,303.0361328 L132.9648438,303.0361328 L132.9648438,306.2861328 L113.109375,306.2861328 L113.109375,303.0361328 L120.9296875,303.0361328 L120.9296875,296.1552734 L114.9882813,296.1552734 L114.9882813,293.0068359 L120.9296875,293.0068359 L120.9296875,288.0302734 L124.5859375,288.0302734 L124.5859375,293.0068359 L131.9238281,293.0068359 Z M125.7285156,298.3642578 L128.0898438,296.4345703 C129.3762817,297.7548828 130.6542969,299.1259766 131.9238281,300.5478516 L129.3085938,302.6552734 C128.208313,301.2672424 127.0149536,299.8369141 125.7285156,298.3642578 Z M136.2910156,288.1572266 C137.4335632,287.1246643 138.3032227,286.2380981 138.8999023,285.4975586 C139.4965515,284.7569885 140.0530396,283.895813 140.5693359,282.9140625 L141.140625,282.9140625 C141.6568909,283.895813 142.209137,284.7527466 142.7973633,285.4848633 C143.3855591,286.2169495 144.2594299,287.1077271 145.4189453,288.1572266 L145.4189453,289.1220703 C144.5979614,288.7327271 143.9695435,288.4026489 143.5336914,288.1318359 C143.0978088,287.8609924 142.5751953,287.4885864 141.9658203,287.0146484 L141.9658203,305.359375 L139.7441406,305.359375 L139.7441406,287.0146484 C139.1601563,287.4716797 138.6417542,287.8398438 138.1889648,288.1191406 C137.736145,288.3984375 137.1034851,288.7327271 136.2910156,289.1220703 Z" style="fill:rgb(255,255,255);stroke:none" clip-path="url(#clip9)" />
<clipPath id="clip10"><path d="M296,127 L352,127 L352,181 L296,181 L296,127 Z" /></clipPath>
<path d="M305,128 C300.5817261,128 297,131.5817261 297,136 L297,171 C297,175.4182739 300.5817261,179 305,179 L342,179 C346.4182739,179 350,175.4182739 350,171 L350,136 C350,131.5817261 346.4182739,128 342,128 Z" style="fill:rgb(85,142,213);stroke:none" clip-path="url(#clip10)" />
<clipPath id="clip11"><path d="M308,134 L340,134 L340,174 L308,174 L308,134 Z" /></clipPath>
<path d="M335.5986328,147.9824219 L318.7900391,147.9824219 L318.6123047,150.8515625 L334.3798828,150.8515625 L333.9736328,161.0078125 C333.8974609,162.9290314 333.3748169,164.2747345 332.4057617,165.0449219 C331.436676,165.8151093 330.1227112,166.204422 328.4638672,166.2128906 L322.9794922,166.2128906 C322.7763672,165.1803436 322.4801331,163.953125 322.0908203,162.53125 C323.8512268,162.6158905 325.5693359,162.6582031 327.2451172,162.6582031 C329.0055237,162.6582031 329.9576721,162.127121 330.1015625,161.0649414 C330.2454224,160.0027618 330.3512268,157.6901093 330.4189453,154.1269531 L314.6005859,154.1269531 L315.3115234,141.7871094 L319.1708984,141.7871094 L318.9931641,144.65625 L335.5986328,144.65625 Z M328.7685547,160.09375 L311.4013672,160.09375 L311.4013672,156.7675781 L328.7685547,156.7675781 Z" style="fill:rgb(255,255,255);stroke:none" clip-path="url(#clip11)" />
<clipPath id="clip12"><path d="M289,241 L345,241 L345,295 L289,295 L289,241 Z" /></clipPath>
<path d="M298,242 C293.5817261,242 290,245.5817261 290,250 L290,285 C290,289.4182739 293.5817261,293 298,293 L335,293 C339.4182739,293 343,289.4182739 343,285 L343,250 C343,245.5817261 339.4182739,242 335,242 Z" style="fill:rgb(85,142,213);stroke:none" clip-path="url(#clip12)" />
<clipPath id="clip13"><path d="M301,248 L333,248 L333,288 L301,288 L301,248 Z" /></clipPath>
<path d="M304.0205078,259.0878906 L317.3378906,259.0878906 L317.1474609,255.40625 L320.7529297,255.40625 C320.7698364,256.3795471 320.8079224,257.6067505 320.8671875,259.0878906 L323.9394531,259.0878906 C323.5416565,258.5631409 322.9788208,257.877594 322.2509766,257.03125 L324.9169922,255.5839844 C325.4924927,256.2102661 326.2203674,257.0735474 327.1005859,258.1738281 L325.4248047,259.0878906 L329.1064453,259.0878906 L329.1064453,262.2871094 L320.9941406,262.2871094 C321.1210938,264.8600159 321.3199768,267.0986328 321.5908203,269.0029297 C322.8688049,267.0647583 323.9013672,265.0885315 324.6884766,263.0742188 L327.9130859,264.5976563 C326.4234924,267.8137817 324.6376953,270.7929688 322.5556641,273.5351563 C322.8941956,274.567688 323.2666016,275.3738403 323.6728516,275.9536133 C324.0791016,276.5333557 324.4260864,276.8232422 324.7138672,276.8232422 C324.9931641,276.8232422 325.2110901,276.4825745 325.3676758,275.8012695 C325.524231,275.1199341 325.6871643,273.8144531 325.8564453,271.8847656 C326.9228516,272.4433594 328.0061646,272.9596252 329.1064453,273.4335938 C328.6494141,276.3535156 328.1289063,278.2768555 327.5449219,279.2036133 C326.9609375,280.1303711 326.1526489,280.59375 325.1201172,280.59375 C323.0380859,280.59375 321.3665161,279.2268677 320.1054688,276.4931641 C318.9205627,277.7965393 317.6552734,279.0449219 316.3095703,280.2382813 C315.8525391,279.6204224 315.3108521,278.9772034 314.6845703,278.3085938 L304.3505859,279.6289063 L303.8935547,275.9472656 C307.7867737,275.6256409 311.6461487,275.2532349 315.4716797,274.8300781 C315.4716797,275.346344 315.4758911,275.8118286 315.484375,276.2265625 C316.6946411,275.0670471 317.8033752,273.890625 318.8105469,272.6972656 C318.1672974,270.065094 317.7314453,266.5950317 317.5029297,262.2871094 L304.0205078,262.2871094 Z M305.4423828,264.3691406 L315.4716797,264.3691406 L315.4716797,273.3320313 L305.4423828,273.3320313 Z M312.1962891,270.4628906 L312.1962891,267.2382813 L308.7177734,267.2382813 L308.7177734,270.4628906 Z" style="fill:rgb(255,255,255);stroke:none" clip-path="url(#clip13)" />
<clipPath id="clip14"><path d="M155,252 L294,252 L294,315 L155,315 L155,252 Z" /></clipPath>
<path d="M159,304.1862183 C210,311 238,256 290,263.6178284" style="fill:none;stroke:rgb(119,147,60);stroke-width:3;stroke-dasharray:18,9;stroke-dashoffset:0" clip-path="url(#clip14)" />
<clipPath id="clip15"><path d="M155,252 L294,252 L294,315 L155,315 L155,252 Z" /></clipPath>
<path d="M280.7064514,267.3097229 L290,263.6178284 L282.1559448,257.4153442 Z" style="fill:rgb(119,147,60);stroke:none" clip-path="url(#clip15)" />
<clipPath id="clip16"><path d="M155,252 L294,252 L294,315 L155,315 L155,252 Z" /></clipPath>
<path d="M280.7064514,267.3097229 L290,263.6178284 L282.1559448,257.4153442 Z" style="fill:none;stroke:rgb(119,147,60);stroke-width:3" clip-path="url(#clip16)" />
<clipPath id="clip17"><path d="M129,227 L294,227 L294,280 L129,280 L129,227 Z" /></clipPath>
<path d="M133,252.5100098 C187,276 234,231 290,255.7757568" style="fill:none;stroke:rgb(119,147,60);stroke-width:3;stroke-dasharray:18,9;stroke-dashoffset:0" clip-path="url(#clip17)" />
<clipPath id="clip18"><path d="M129,227 L294,227 L294,280 L129,280 L129,227 Z" /></clipPath>
<path d="M280.057251,256.8443298 L290,255.7757568 L284.1032104,247.6993713 Z" style="fill:rgb(119,147,60);stroke:none" clip-path="url(#clip18)" />
<clipPath id="clip19"><path d="M129,227 L294,227 L294,280 L129,280 L129,227 Z" /></clipPath>
<path d="M280.057251,256.8443298 L290,255.7757568 L284.1032104,247.6993713 Z" style="fill:none;stroke:rgb(119,147,60);stroke-width:3" clip-path="url(#clip19)" />
<clipPath id="clip20"><path d="M113,62 L301,62 L301,134 L113,134 L113,62 Z" /></clipPath>
<path d="M117.2102051,66 C180,119 246,87 297,130.7612915" style="fill:none;stroke:rgb(119,147,60);stroke-width:3;stroke-dasharray:18,9;stroke-dashoffset:0" clip-path="url(#clip20)" />
<clipPath id="clip21"><path d="M113,62 L301,62 L301,134 L113,134 L113,62 Z" /></clipPath>
<path d="M287.1716614,128.9163361 L297,130.7612915 L293.6836243,121.3272247 Z" style="fill:rgb(119,147,60);stroke:none" clip-path="url(#clip21)" />
<clipPath id="clip22"><path d="M113,62 L301,62 L301,134 L113,134 L113,62 Z" /></clipPath>
<path d="M287.1716614,128.9163361 L297,130.7612915 L293.6836243,121.3272247 Z" style="fill:none;stroke:rgb(119,147,60);stroke-width:3" clip-path="url(#clip22)" />
<clipPath id="clip23"><path d="M295,175 L345,175 L345,246 L295,246 L295,175 Z" /></clipPath>
<path d="M324.6494751,242 C332,219 308,201 315.1789551,179" style="fill:none;stroke:rgb(119,147,60);stroke-width:3;stroke-dasharray:18,9;stroke-dashoffset:0" clip-path="url(#clip23)" />
<clipPath id="clip24"><path d="M295,175 L345,175 L345,246 L295,246 L295,175 Z" /></clipPath>
<path d="M317.2457275,188.7840881 L315.1789551,179 L307.7390442,185.6819153 Z" style="fill:rgb(119,147,60);stroke:none" clip-path="url(#clip24)" />
<clipPath id="clip25"><path d="M295,175 L345,175 L345,246 L295,246 L295,175 Z" /></clipPath>
<path d="M317.2457275,188.7840881 L315.1789551,179 L307.7390442,185.6819153 Z" style="fill:none;stroke:rgb(119,147,60);stroke-width:3" clip-path="url(#clip25)" />
<clipPath id="clip26"><path d="M346,121 L499,121 L499,182 L346,182 L346,121 Z" /></clipPath>
<path d="M350,161.5652161 C404,178 444,125 495,141.7901306" style="fill:none;stroke:rgb(119,147,60);stroke-width:3;stroke-dasharray:18,9;stroke-dashoffset:0" clip-path="url(#clip26)" />
<clipPath id="clip27"><path d="M346,121 L499,121 L499,182 L346,182 L346,121 Z" /></clipPath>
<path d="M485.2105103,143.8312378 L495,141.7901306 L488.3375854,134.3327484 Z" style="fill:rgb(119,147,60);stroke:none" clip-path="url(#clip27)" />
<clipPath id="clip28"><path d="M346,121 L499,121 L499,182 L346,182 L346,121 Z" /></clipPath>
<path d="M485.2105103,143.8312378 L495,141.7901306 L488.3375854,134.3327484 Z" style="fill:none;stroke:rgb(119,147,60);stroke-width:3" clip-path="url(#clip28)" />
</svg>
